<svg xmlns="http://www.w3.org/2000/svg" xmlns:xlink="http://www.w3.org/1999/xlink" width="347" height="60" viewBox="0 0 347 60"><defs><style>.a,.d{fill:#fff;}.a{stroke:#707070;}.b{clip-path:url(#a);}.c{fill:#e8662a;}</style><clipPath id="a"><rect class="a" width="347" height="60" transform="translate(1025.087 769.793)"/></clipPath></defs><g class="b" transform="translate(-1025.087 -769.793)"><g transform="translate(1026.841 771.929)"><g transform="translate(243.272 0)"><path class="c" d="M403.75,29.532h13.2l-13.162-13.2-.043-7.144L429.207,34.6H403.793Z" transform="translate(-403.75 -9.184)"/><path class="c" d="M403.793,57.866h25.414L403.75,83.28l.043-7.144,13.162-13.2h-13.2Z" transform="translate(-403.75 -27.343)"/></g><g transform="translate(0 9.655)"><path class="d" d="M47,41.771c.13,8.832-5.239,17.794-17.491,17.794H15.744V24.583H29.512C41.5,24.583,46.873,33.112,47,41.771ZM22.325,53.244h7.187c7.966,0,11.083-5.8,10.954-11.516-.13-5.455-3.334-10.91-10.954-10.91H22.325Z" transform="translate(-15.744 -24.583)"/><path class="d" d="M78.066,55.126c.39,3.031,3.031,5.239,7.36,5.239,2.251,0,5.2-.866,6.581-2.295l3.9,3.853c-2.6,2.684-6.841,3.983-10.607,3.983-8.486,0-13.551-5.239-13.551-13.162,0-7.49,5.109-12.9,13.118-12.9,8.269,0,13.421,5.109,12.469,15.24H78.066Zm13.378-5.065c-.39-3.2-2.9-4.806-6.408-4.806-3.29,0-6.018,1.6-6.884,4.806Z" transform="translate(-36.634 -30.275)"/><path class="d" d="M125.692,29.969v7.014h6.841v5.239h-6.841v10.65c0,2.338,1.3,3.507,3.2,3.507a7.209,7.209,0,0,0,2.944-.736l1.688,5.2a13.582,13.582,0,0,1-5.065,1.039c-5.369.216-8.832-2.857-8.832-9.005V42.221h-4.589V36.982h4.589V30.618Z" transform="translate(-52.784 -26.592)"/><path class="d" d="M155.792,40.7l.433,2.857c1.9-3.031,4.459-3.507,6.97-3.507a9.4,9.4,0,0,1,6.364,2.338l-2.771,5.282a6.133,6.133,0,0,0-4.416-1.6c-3.2,0-6.148,1.688-6.148,6.234V65.291h-6.1V40.613h5.672Z" transform="translate(-65.869 -30.352)"/><path class="d" d="M203.555,40.725H209.4V65.4h-5.758l-.3-3.593c-1.385,2.9-5.239,4.286-8.009,4.329-7.317.043-12.685-4.459-12.685-13.118,0-8.486,5.672-12.945,12.858-12.9,3.29,0,6.451,1.559,7.836,3.983Zm-14.807,12.3c0,4.719,3.247,7.49,7.317,7.49,9.611,0,9.611-14.937,0-14.937A7.009,7.009,0,0,0,188.748,53.021Z" transform="translate(-78.001 -30.378)"/><path class="d" d="M251.573,65.489v-12.9c0-3.767-2.035-6.581-5.931-6.581-3.767,0-6.321,3.161-6.321,6.884v12.6h-6.061V40.811h5.455l.39,3.334c2.511-2.468,5.022-3.68,8.1-3.68,5.8,0,10.434,4.373,10.434,12.122V65.532h-6.061Z" transform="translate(-96.881 -30.507)"/></g><g transform="translate(164.606 8.659)"><path class="c" d="M305.643,32.519a13.389,13.389,0,0,0-8.919-3.507c-7.49,0-12.036,5.715-12.036,12.9,0,5.758,3.334,11.69,12.036,11.69a11.669,11.669,0,0,0,7.923-2.814V44.642h-8.962V38.71h15.023V53.474a17.486,17.486,0,0,1-13.941,6.321c-13.162,0-18.487-8.659-18.487-17.837,0-9.871,6.148-18.963,18.487-18.963a18.433,18.433,0,0,1,12.988,5.369Z" transform="translate(-278.281 -22.994)"/><path class="c" d="M372.056,41.878c-.087,9.049-5.672,18.1-17.967,18.1s-18.011-8.832-18.011-18.054,5.888-18.443,18.011-18.443C366.168,23.478,372.186,32.7,372.056,41.878Zm-29.44.13c.13,5.758,3.247,11.906,11.516,11.906s11.343-6.191,11.473-11.949c.087-5.888-3.2-12.512-11.473-12.512S342.442,36.12,342.616,42.008Z" transform="translate(-299.841 -23.175)"/></g><g transform="translate(273.145 8.962)"><path class="d" d="M487.374,41.878c-.087,9.049-5.672,18.1-17.967,18.1S451.4,51.143,451.4,41.921s5.888-18.443,18.01-18.443C481.485,23.478,487.5,32.7,487.374,41.878Zm-29.44.13c.13,5.758,3.247,11.906,11.516,11.906s11.343-6.191,11.473-11.949c.087-5.888-3.2-12.512-11.473-12.512S457.8,36.12,457.933,42.008Z" transform="translate(-451.396 -23.478)"/><path class="d" d="M539.88,24.514h6.581V59.582h-4.07v.043l-18.4-23.639v23.6H517.41V24.557h5.369l17.145,21.691V24.514Z" transform="translate(-476.02 -23.864)"/></g></g></g></svg>